<svg width="20" height="20" viewBox="0 0 20 20" fill="none" xmlns="http://www.w3.org/2000/svg">
<path d="M3.24999 10.0002C3.24999 8.57516 4.40832 7.41683 5.83332 7.41683H9.16666V5.8335H5.83332C4.72825 5.8335 3.66845 6.27248 2.88704 7.05388C2.10564 7.83529 1.66666 8.89509 1.66666 10.0002C1.66666 11.1052 2.10564 12.165 2.88704 12.9464C3.66845 13.7278 4.72825 14.1668 5.83332 14.1668H9.16666V12.5835H5.83332C4.40832 12.5835 3.24999 11.4252 3.24999 10.0002ZM6.66666 10.8335H13.3333V9.16683H6.66666V10.8335ZM14.1667 5.8335H10.8333V7.41683H14.1667C15.5917 7.41683 16.75 8.57516 16.75 10.0002C16.75 11.4252 15.5917 12.5835 14.1667 12.5835H10.8333V14.1668H14.1667C15.2717 14.1668 16.3315 13.7278 17.1129 12.9464C17.8943 12.165 18.3333 11.1052 18.3333 10.0002C18.3333 8.89509 17.8943 7.83529 17.1129 7.05388C16.3315 6.27248 15.2717 5.8335 14.1667 5.8335Z" fill="white"/>
</svg>
